<svg width="50" height="48" viewBox="0 0 50 48" fill="none" xmlns="http://www.w3.org/2000/svg">
<g id="SVG" clip-path="url(#clip0_1_151)">
<path id="Vector" d="M48.5042 26.9858H26.6999L41.2211 41.5079C41.7761 42.0629 42.6895 42.1079 43.2601 41.5704C46.8162 38.2199 49.2622 33.7033 49.9799 28.6261C50.103 27.7568 49.3817 26.9858 48.5042 26.9858ZM47.0496 21.031C46.2924 10.0533 37.5207 1.28104 26.5437 0.523831C25.7057 0.465937 25 1.17261 25 2.01252V22.5748H45.5619C46.4017 22.5748 47.1075 21.8691 47.0496 21.031ZM20.5894 26.9858V5.18013C20.5894 4.30253 19.8184 3.58116 18.9501 3.7043C7.99971 5.2518 -0.370408 14.8189 0.0191992 26.2846C0.419833 38.06 10.5579 47.7163 22.338 47.5683C26.9692 47.5104 31.2484 46.0181 34.7668 43.5222C35.4927 43.0076 35.5405 41.9389 34.9111 41.3094L20.5894 26.9858Z" fill="#FF0303"/>
</g>
<defs>
<clipPath id="clip0_1_151">
<rect width="50" height="47.05" fill="white" transform="translate(0 0.52002)"/>
</clipPath>
</defs>
</svg>
