<svg width="41" height="42" viewBox="0 0 41 42" fill="none" xmlns="http://www.w3.org/2000/svg">
<g id="Section &#226;&#134;&#146; List &#226;&#134;&#146; Item" clip-path="url(#clip0_1_259)">
<path id="Vector" d="M22.4219 7.20654C22.2083 7.20654 22.0215 7.28662 21.8613 7.44678C21.7012 7.60693 21.6211 7.79378 21.6211 8.00732C21.6211 8.22087 21.7012 8.40771 21.8613 8.56787C22.0215 8.72803 22.2083 8.80811 22.4219 8.80811C22.6354 8.80811 22.8223 8.72803 22.9824 8.56787C23.1426 8.40771 23.2227 8.22087 23.2227 8.00732C23.2227 7.79378 23.1426 7.60693 22.9824 7.44678C22.8223 7.28662 22.6354 7.20654 22.4219 7.20654ZM14.4141 7.20654C14.2005 7.20654 14.0137 7.28662 13.8535 7.44678C13.6934 7.60693 13.6133 7.79378 13.6133 8.00732C13.6133 8.22087 13.6934 8.40771 13.8535 8.56787C14.0137 8.72803 14.2005 8.80811 14.4141 8.80811C14.6276 8.80811 14.8145 8.72803 14.9746 8.56787C15.1348 8.40771 15.2148 8.22087 15.2148 8.00732C15.2148 7.79378 15.1348 7.60693 14.9746 7.44678C14.8145 7.28662 14.6276 7.20654 14.4141 7.20654ZM35.7949 24.5034C36.1419 23.9696 36.4022 23.4023 36.5757 22.8018C36.7492 22.2012 36.8359 21.6206 36.8359 21.0601C36.8359 20.2326 36.6558 19.4385 36.2954 18.6777C35.9351 17.917 35.4346 17.283 34.7939 16.7759C34.9541 16.4289 35.0675 16.0819 35.1343 15.7349C35.201 15.3879 35.2344 15.0275 35.2344 14.6538C35.2344 13.5327 34.9341 12.4917 34.3335 11.5308C33.7329 10.5698 32.9521 9.84912 31.9912 9.36865C32.1514 8.16748 31.8778 7.06641 31.1704 6.06543C30.4631 5.06445 29.5221 4.41716 28.3477 4.12354C27.8939 3.05583 27.1932 2.19499 26.2456 1.54102C25.298 0.887043 24.2904 0.560059 23.2227 0.560059C22.2083 0.560059 21.2808 0.826984 20.4399 1.36084C19.5991 1.8947 18.9251 2.5887 18.418 3.44287C17.9108 2.5887 17.2368 1.8947 16.396 1.36084C15.5552 0.826984 14.6276 0.560059 13.6133 0.560059C12.5456 0.560059 11.5379 0.887043 10.5903 1.54102C9.64274 2.19499 8.94206 3.05583 8.48828 4.12354C7.3138 4.41716 6.37288 5.06445 5.66553 6.06543C4.95817 7.06641 4.68457 8.16748 4.84473 9.36865C3.88379 9.84912 3.10303 10.5698 2.50244 11.5308C1.90186 12.4917 1.60156 13.5327 1.60156 14.6538C1.60156 15.0275 1.63493 15.3879 1.70166 15.7349C1.76839 16.0819 1.88184 16.4289 2.04199 16.7759C1.40137 17.283 0.900879 17.917 0.540527 18.6777C0.180176 19.4385 0 20.2326 0 21.0601C0 21.6206 0.0867513 22.2078 0.260254 22.8218C0.433757 23.4357 0.69401 23.9963 1.04102 24.5034C0.69401 24.9572 0.433757 25.4577 0.260254 26.0049C0.0867513 26.5521 0 27.1193 0 27.7065C0 28.4539 0.14681 29.168 0.44043 29.8486C0.734049 30.5293 1.14779 31.1366 1.68164 31.6704C1.41471 33.3254 1.8418 34.8535 2.96289 36.2549C4.08398 37.6562 5.4987 38.3569 7.20703 38.3569C7.20703 38.3569 7.2137 38.3569 7.22705 38.3569C7.2404 38.3569 7.26042 38.3569 7.28711 38.3569C7.84766 39.3446 8.62175 40.1253 9.60938 40.6992C10.597 41.2731 11.6647 41.5601 12.8125 41.5601C14.0137 41.5601 15.1081 41.2397 16.0957 40.5991C17.0833 39.9585 17.8574 39.1177 18.418 38.0767C18.9785 39.1177 19.7526 39.9585 20.7402 40.5991C21.7279 41.2397 22.8223 41.5601 24.0234 41.5601C25.1712 41.5601 26.2389 41.2731 27.2266 40.6992C28.2142 40.1253 28.9883 39.3446 29.5488 38.3569C29.5755 38.3569 29.5955 38.3569 29.6089 38.3569C29.6222 38.3569 29.6289 38.3569 29.6289 38.3569C31.1504 38.3569 32.465 37.7764 33.5728 36.6152C34.6805 35.4541 35.2344 34.0861 35.2344 32.5112C35.2344 32.3778 35.2277 32.2443 35.2144 32.1108C35.201 31.9774 35.181 31.8306 35.1543 31.6704C35.6882 31.1366 36.1019 30.5293 36.3955 29.8486C36.6891 29.168 36.8359 28.4539 36.8359 27.7065C36.8359 27.1193 36.7492 26.5521 36.5757 26.0049C36.4022 25.4577 36.1419 24.9572 35.7949 24.5034ZM17.6172 12.6919C17.377 12.5584 17.1234 12.4517 16.8564 12.3716C16.5895 12.2915 16.3092 12.2515 16.0156 12.2515C15.8021 12.2515 15.6152 12.3315 15.4551 12.4917C15.2949 12.6519 15.2148 12.8387 15.2148 13.0522C15.2148 13.2658 15.2949 13.4526 15.4551 13.6128C15.6152 13.7729 15.8021 13.853 16.0156 13.853C16.4694 13.853 16.8498 14.0065 17.1567 14.3135C17.4637 14.6204 17.6172 15.0008 17.6172 15.4546V30.6694C17.0299 30.0021 16.3226 29.4749 15.4951 29.0879C14.6676 28.7008 13.7734 28.5073 12.8125 28.5073C12.599 28.5073 12.4121 28.5874 12.252 28.7476C12.0918 28.9077 12.0117 29.0946 12.0117 29.3081C12.0117 29.5216 12.0918 29.7085 12.252 29.8687C12.4121 30.0288 12.599 30.1089 12.8125 30.1089C14.1471 30.1089 15.2816 30.576 16.2158 31.5103C17.1501 32.4445 17.6172 33.5789 17.6172 34.9136C17.6172 36.2749 17.1434 37.4561 16.1958 38.457C15.2482 39.458 14.1204 39.9585 12.8125 39.9585C11.8783 39.9585 11.0174 39.7049 10.23 39.1978C9.44255 38.6906 8.84863 38.0099 8.44824 37.1558C8.39486 36.9956 8.28809 36.8755 8.12793 36.7954C7.96777 36.7153 7.80762 36.6886 7.64746 36.7153C7.62077 36.7153 7.59408 36.7153 7.56738 36.7153C7.54069 36.7153 7.514 36.7153 7.4873 36.7153C6.33952 36.8755 5.27181 36.4217 4.28418 35.354C3.29655 34.2863 2.97624 33.0317 3.32324 31.5903C3.34993 31.4302 3.34326 31.2767 3.30322 31.1299C3.26318 30.9831 3.17643 30.8696 3.04297 30.7896C2.58919 30.3892 2.23551 29.922 1.98193 29.3882C1.72835 28.8543 1.60156 28.2938 1.60156 27.7065C1.60156 27.3328 1.65495 26.9725 1.76172 26.6255C1.86849 26.2785 2.0153 25.9582 2.20215 25.6646C2.68262 26.0382 3.2098 26.3385 3.78369 26.5654C4.35758 26.7923 4.96484 26.9058 5.60547 26.9058C5.81901 26.9058 6.00586 26.8257 6.16602 26.6655C6.32617 26.5054 6.40625 26.3185 6.40625 26.105C6.40625 25.8914 6.32617 25.7046 6.16602 25.5444C6.00586 25.3843 5.81901 25.3042 5.60547 25.3042C4.51107 25.3042 3.57015 24.8771 2.78271 24.0229C1.99528 23.1688 1.60156 22.1812 1.60156 21.0601C1.60156 20.366 1.76839 19.7254 2.10205 19.1382C2.43571 18.5509 2.89616 18.0705 3.4834 17.6968C3.64355 17.5633 3.75033 17.3965 3.80371 17.1963C3.8571 16.9961 3.8304 16.8026 3.72363 16.6157C3.56348 16.2954 3.43669 15.9751 3.34326 15.6548C3.24984 15.3345 3.20312 15.0008 3.20312 14.6538C3.20312 13.5861 3.59017 12.6118 4.36426 11.731C5.13835 10.8501 6.08594 10.4097 7.20703 10.4097C8.27474 10.4097 9.20898 10.8368 10.0098 11.6909C10.8105 12.5451 11.2109 13.5327 11.2109 14.6538C11.2109 14.8673 11.291 15.0542 11.4512 15.2144C11.6113 15.3745 11.7982 15.4546 12.0117 15.4546C12.2253 15.4546 12.4121 15.3745 12.5723 15.2144C12.7324 15.0542 12.8125 14.8673 12.8125 14.6538C12.8125 13.0789 12.2586 11.7109 11.1509 10.5498C10.0431 9.38867 8.72852 8.80811 7.20703 8.80811C7.07357 8.80811 6.9401 8.81478 6.80664 8.82812C6.67318 8.84147 6.53971 8.86149 6.40625 8.88818C6.40625 8.86149 6.40625 8.84147 6.40625 8.82812C6.40625 8.81478 6.40625 8.80811 6.40625 8.80811C6.40625 7.92725 6.71989 7.17318 7.34717 6.5459C7.97445 5.91862 8.72852 5.60498 9.60938 5.60498C10.0365 5.60498 10.4435 5.68506 10.8306 5.84521C11.2176 6.00537 11.5713 6.23226 11.8916 6.52588C12.0251 6.68604 12.2052 6.76611 12.4321 6.76611C12.659 6.76611 12.8525 6.68604 13.0127 6.52588C13.1729 6.39241 13.2529 6.21224 13.2529 5.98535C13.2529 5.75846 13.1729 5.56494 13.0127 5.40479C12.639 5.03109 12.2253 4.73079 11.7715 4.50391C11.3177 4.27702 10.8506 4.12354 10.3701 4.04346C10.7171 3.5363 11.1709 3.09587 11.7314 2.72217C12.292 2.34847 12.9193 2.16162 13.6133 2.16162C14.681 2.16162 15.6152 2.5887 16.416 3.44287C17.2168 4.29704 17.6172 5.28467 17.6172 6.40576V12.6919ZM31.2305 26.9058C31.8711 26.9058 32.4784 26.7923 33.0522 26.5654C33.6261 26.3385 34.1533 26.0382 34.6338 25.6646C34.8206 25.9582 34.9674 26.2785 35.0742 26.6255C35.181 26.9725 35.2344 27.3328 35.2344 27.7065C35.2344 28.2938 35.1076 28.8543 34.854 29.3882C34.6004 29.922 34.2467 30.3892 33.793 30.7896C33.6595 30.8696 33.5728 30.9831 33.5327 31.1299C33.4927 31.2767 33.486 31.4302 33.5127 31.5903C33.5394 31.7505 33.5661 31.9106 33.5928 32.0708C33.6195 32.231 33.6328 32.3778 33.6328 32.5112C33.6328 33.7658 33.1724 34.8201 32.2515 35.6743C31.3306 36.5285 30.363 36.8755 29.3486 36.7153C29.3219 36.7153 29.2952 36.7153 29.2686 36.7153C29.2419 36.7153 29.2152 36.7153 29.1885 36.7153C29.0283 36.6886 28.8682 36.7153 28.708 36.7954C28.5479 36.8755 28.4411 36.9956 28.3877 37.1558C27.9873 38.0099 27.3934 38.6906 26.606 39.1978C25.8185 39.7049 24.9577 39.9585 24.0234 39.9585C22.7155 39.9585 21.5877 39.458 20.6401 38.457C19.6925 37.4561 19.2188 36.2749 19.2188 34.9136C19.2188 33.5789 19.6859 32.4445 20.6201 31.5103C21.5544 30.576 22.6888 30.1089 24.0234 30.1089C24.237 30.1089 24.4238 30.0288 24.584 29.8687C24.7441 29.7085 24.8242 29.5216 24.8242 29.3081C24.8242 29.0946 24.7441 28.9077 24.584 28.7476C24.4238 28.5874 24.237 28.5073 24.0234 28.5073C23.0625 28.5073 22.1683 28.7008 21.3408 29.0879C20.5133 29.4749 19.806 30.0021 19.2188 30.6694V15.4546C19.2188 15.0008 19.3722 14.6204 19.6792 14.3135C19.9862 14.0065 20.3665 13.853 20.8203 13.853C21.0339 13.853 21.2207 13.7729 21.3809 13.6128C21.541 13.4526 21.6211 13.2658 21.6211 13.0522C21.6211 12.8387 21.541 12.6519 21.3809 12.4917C21.2207 12.3315 21.0339 12.2515 20.8203 12.2515C20.5267 12.2515 20.2464 12.2915 19.9795 12.3716C19.7126 12.4517 19.459 12.5584 19.2188 12.6919V6.40576C19.2188 5.28467 19.6191 4.29704 20.4199 3.44287C21.2207 2.5887 22.1549 2.16162 23.2227 2.16162C23.9167 2.16162 24.5439 2.34847 25.1045 2.72217C25.665 3.09587 26.1188 3.5363 26.4658 4.04346C25.9854 4.12354 25.5182 4.27702 25.0645 4.50391C24.6107 4.73079 24.1969 5.03109 23.8232 5.40479C23.6631 5.56494 23.583 5.75846 23.583 5.98535C23.583 6.21224 23.6631 6.39241 23.8232 6.52588C23.9834 6.68604 24.1769 6.76611 24.4038 6.76611C24.6307 6.76611 24.8109 6.68604 24.9443 6.52588C25.2646 6.23226 25.6183 6.00537 26.0054 5.84521C26.3924 5.68506 26.7995 5.60498 27.2266 5.60498C28.1074 5.60498 28.8615 5.91862 29.4888 6.5459C30.116 7.17318 30.4297 7.92725 30.4297 8.80811C30.4297 8.80811 30.4297 8.81478 30.4297 8.82812C30.4297 8.84147 30.4297 8.86149 30.4297 8.88818C30.2962 8.86149 30.1628 8.84147 30.0293 8.82812C29.8958 8.81478 29.7624 8.80811 29.6289 8.80811C28.1074 8.80811 26.7928 9.38867 25.6851 10.5498C24.5773 11.7109 24.0234 13.0789 24.0234 14.6538C24.0234 14.8673 24.1035 15.0542 24.2637 15.2144C24.4238 15.3745 24.6107 15.4546 24.8242 15.4546C25.0378 15.4546 25.2246 15.3745 25.3848 15.2144C25.5449 15.0542 25.625 14.8673 25.625 14.6538C25.625 13.5327 26.0254 12.5451 26.8262 11.6909C27.627 10.8368 28.5612 10.4097 29.6289 10.4097C30.75 10.4097 31.6976 10.8434 32.4717 11.7109C33.2458 12.5785 33.6328 13.5594 33.6328 14.6538C33.6328 15.0008 33.5861 15.3345 33.4927 15.6548C33.3993 15.9751 33.2725 16.2954 33.1123 16.6157C33.0055 16.8026 32.9788 16.9961 33.0322 17.1963C33.0856 17.3965 33.1924 17.5633 33.3525 17.6968C33.9398 18.0705 34.4002 18.5509 34.7339 19.1382C35.0675 19.7254 35.2344 20.366 35.2344 21.0601C35.2344 22.1812 34.8407 23.1688 34.0532 24.0229C33.2658 24.8771 32.3249 25.3042 31.2305 25.3042C31.0169 25.3042 30.8301 25.3843 30.6699 25.5444C30.5098 25.7046 30.4297 25.8914 30.4297 26.105C30.4297 26.3185 30.5098 26.5054 30.6699 26.6655C30.8301 26.8257 31.0169 26.9058 31.2305 26.9058ZM15.8154 17.6968C15.6553 17.5366 15.4684 17.4499 15.2549 17.4365C15.0413 17.4232 14.8545 17.4966 14.6943 17.6567C13.4131 18.8045 11.9784 19.0247 10.3901 18.3174C8.80192 17.61 8.00781 16.3888 8.00781 14.6538C8.00781 14.4403 7.92773 14.2534 7.76758 14.0933C7.60742 13.9331 7.42057 13.853 7.20703 13.853C6.99349 13.853 6.80664 13.9331 6.64648 14.0933C6.48633 14.2534 6.40625 14.4403 6.40625 14.6538C6.40625 16.0418 6.85335 17.2563 7.74756 18.2974C8.64176 19.3384 9.75618 19.9657 11.0908 20.1792C10.9307 20.6597 10.6437 21.0601 10.23 21.3804C9.81624 21.7007 9.34245 21.8608 8.80859 21.8608C8.59505 21.8608 8.4082 21.9409 8.24805 22.1011C8.08789 22.2612 8.00781 22.4481 8.00781 22.6616C8.00781 22.8752 8.08789 23.062 8.24805 23.2222C8.4082 23.3823 8.59505 23.4624 8.80859 23.4624C9.79622 23.4624 10.6571 23.1488 11.3911 22.5215C12.1252 21.8942 12.5723 21.1268 12.7324 20.2192C13.293 20.1392 13.8268 19.9857 14.334 19.7588C14.8411 19.5319 15.3083 19.2183 15.7354 18.8179C15.9222 18.6844 16.0156 18.5042 16.0156 18.2773C16.0156 18.0505 15.9489 17.8569 15.8154 17.6968ZM7.20703 31.7104C6.99349 31.7104 6.80664 31.7905 6.64648 31.9507C6.48633 32.1108 6.40625 32.2977 6.40625 32.5112C6.40625 32.7248 6.48633 32.9116 6.64648 33.0718C6.80664 33.2319 6.99349 33.312 7.20703 33.312C8.27474 33.312 9.20898 33.7391 10.0098 34.5933C10.8105 35.4474 11.2109 36.4351 11.2109 37.5562C11.2109 37.7697 11.291 37.9565 11.4512 38.1167C11.6113 38.2769 11.7982 38.3569 12.0117 38.3569C12.2253 38.3569 12.4121 38.2769 12.5723 38.1167C12.7324 37.9565 12.8125 37.7697 12.8125 37.5562C12.8125 35.9813 12.2586 34.6133 11.1509 33.4521C10.0431 32.291 8.72852 31.7104 7.20703 31.7104ZM13.6133 25.3042C12.252 25.3042 11.0174 25.6445 9.90967 26.3252C8.80192 27.0059 7.94108 27.88 7.32715 28.9478C7.22038 29.1346 7.20036 29.3348 7.26709 29.5483C7.33382 29.7619 7.46061 29.922 7.64746 30.0288C7.83431 30.1623 8.0345 30.1956 8.24805 30.1289C8.46159 30.0622 8.62175 29.9354 8.72852 29.7485C9.20898 28.8944 9.88298 28.207 10.7505 27.6865C11.618 27.166 12.5723 26.9058 13.6133 26.9058C13.8268 26.9058 14.0137 26.8257 14.1738 26.6655C14.334 26.5054 14.4141 26.3185 14.4141 26.105C14.4141 25.8914 14.334 25.7046 14.1738 25.5444C14.0137 25.3843 13.8268 25.3042 13.6133 25.3042ZM28.0273 21.8608C27.4935 21.8608 27.0197 21.7007 26.606 21.3804C26.1922 21.0601 25.9053 20.6597 25.7451 20.1792C27.0798 19.9657 28.1942 19.3384 29.0884 18.2974C29.9826 17.2563 30.4297 16.0418 30.4297 14.6538C30.4297 14.4403 30.3496 14.2534 30.1895 14.0933C30.0293 13.9331 29.8424 13.853 29.6289 13.853C29.4154 13.853 29.2285 13.9331 29.0684 14.0933C28.9082 14.2534 28.8281 14.4403 28.8281 14.6538C28.8281 15.7482 28.4344 16.6891 27.647 17.4766C26.8595 18.264 25.9186 18.6577 24.8242 18.6577C24.3438 18.6577 23.87 18.571 23.4028 18.3975C22.9357 18.224 22.5153 17.9771 22.1416 17.6567C21.9814 17.4966 21.7946 17.4232 21.5811 17.4365C21.3675 17.4499 21.1807 17.5366 21.0205 17.6968C20.887 17.8569 20.8203 18.0505 20.8203 18.2773C20.8203 18.5042 20.9137 18.6844 21.1006 18.8179C21.5277 19.2183 21.9948 19.5319 22.502 19.7588C23.0091 19.9857 23.543 20.1392 24.1035 20.2192C24.2637 21.1268 24.7108 21.8942 25.4448 22.5215C26.1789 23.1488 27.0397 23.4624 28.0273 23.4624C28.2409 23.4624 28.4277 23.3823 28.5879 23.2222C28.748 23.062 28.8281 22.8752 28.8281 22.6616C28.8281 22.4481 28.748 22.2612 28.5879 22.1011C28.4277 21.9409 28.2409 21.8608 28.0273 21.8608ZM29.6289 31.7104C28.1074 31.7104 26.7928 32.291 25.6851 33.4521C24.5773 34.6133 24.0234 35.9813 24.0234 37.5562C24.0234 37.7697 24.1035 37.9565 24.2637 38.1167C24.4238 38.2769 24.6107 38.3569 24.8242 38.3569C25.0378 38.3569 25.2246 38.2769 25.3848 38.1167C25.5449 37.9565 25.625 37.7697 25.625 37.5562C25.625 36.4351 26.0254 35.4474 26.8262 34.5933C27.627 33.7391 28.5612 33.312 29.6289 33.312C29.8424 33.312 30.0293 33.2319 30.1895 33.0718C30.3496 32.9116 30.4297 32.7248 30.4297 32.5112C30.4297 32.2977 30.3496 32.1108 30.1895 31.9507C30.0293 31.7905 29.8424 31.7104 29.6289 31.7104ZM29.5088 28.9478C28.8949 27.88 28.034 27.0059 26.9263 26.3252C25.8185 25.6445 24.584 25.3042 23.2227 25.3042C23.0091 25.3042 22.8223 25.3843 22.6621 25.5444C22.502 25.7046 22.4219 25.8914 22.4219 26.105C22.4219 26.3185 22.502 26.5054 22.6621 26.6655C22.8223 26.8257 23.0091 26.9058 23.2227 26.9058C24.2637 26.9058 25.2179 27.166 26.0854 27.6865C26.953 28.207 27.627 28.8944 28.1074 29.7485C28.2142 29.9354 28.3743 30.0622 28.5879 30.1289C28.8014 30.1956 29.0016 30.1623 29.1885 30.0288C29.3753 29.922 29.5021 29.7619 29.5688 29.5483C29.6356 29.3348 29.6156 29.1346 29.5088 28.9478Z" fill="#F50C18"/>
</g>
<defs>
<clipPath id="clip0_1_259">
<rect width="41" height="41" fill="white" transform="matrix(1 0 0 -1 0 41.5601)"/>
</clipPath>
</defs>
</svg>
