<svg width="20" height="20" viewBox="0 0 20 20" fill="none" xmlns="http://www.w3.org/2000/svg">
<g id="List &#226;&#134;&#146; Item &#226;&#134;&#146; SVG" clip-path="url(#clip0_1_382)">
<path id="Vector" d="M9.88 0.776367C4.79725 0.776367 0.67688 4.89673 0.67688 9.97949C0.67688 15.0623 4.79725 19.1826 9.88 19.1826C14.9628 19.1826 19.0831 15.0623 19.0831 9.97949C19.0831 4.89673 14.9628 0.776367 9.88 0.776367ZM9.88 2.55762C13.9818 2.55762 17.3019 5.87709 17.3019 9.97949C17.3019 14.0813 13.9824 17.4014 9.88 17.4014C5.77823 17.4014 2.45813 14.0819 2.45813 9.97949C2.45813 5.87772 5.7776 2.55762 9.88 2.55762ZM15.0829 7.39174L14.2466 6.54869C14.0734 6.37409 13.7914 6.37294 13.6168 6.54617L8.37136 11.7495L6.15252 9.51266C5.97933 9.33806 5.69737 9.33691 5.52277 9.5101L4.67968 10.3464C4.50508 10.5196 4.50393 10.8015 4.67716 10.9762L8.04599 14.3723C8.21917 14.5469 8.50113 14.548 8.67573 14.3748L15.0804 8.02153C15.255 7.8483 15.2561 7.56634 15.0829 7.39174Z" fill="white"/>
</g>
<defs>
<clipPath id="clip0_1_382">
<rect width="19" height="19" fill="white" transform="translate(0.380005 0.479492)"/>
</clipPath>
</defs>
</svg>
