<svg width="50" height="58" viewBox="0 0 50 58" fill="none" xmlns="http://www.w3.org/2000/svg">
<g id="SVG" clip-path="url(#clip0_1_132)">
<path id="Vector" d="M0.0121434 55.3525C-0.11062 56.4126 0.715241 57.3387 1.78663 57.3387L5.3914 57.3499C6.29538 57.3499 7.05428 56.6915 7.17704 55.7989C7.25516 55.2521 7.37792 54.5603 7.55649 53.7792H42.41C42.5886 54.5492 42.7337 55.2521 42.8006 55.7989C42.9234 56.6915 43.6823 57.361 44.5863 57.3499L48.191 57.3387C49.2624 57.3387 50.0995 56.4126 49.9655 55.3525C49.4522 51.1236 47.1085 40.9585 36.696 32.177C34.7318 33.5606 32.5555 34.8772 30.1672 36.127C30.8591 36.6402 31.4395 37.1758 32.0644 37.7114H17.8239C20.2011 35.6918 23.0693 33.7391 26.6071 31.9761C45.8139 22.4358 49.3405 7.56196 49.9878 2.21718C50.1106 1.15715 49.2848 0.231022 48.2134 0.231022L44.5974 0.219864C43.6935 0.219864 42.9346 0.878198 42.8118 1.77085C42.7337 2.31761 42.6109 3.00941 42.4323 3.79049H7.56765C7.38908 3.00941 7.26632 2.32876 7.1882 1.77085C7.06544 0.878198 6.30654 0.208706 5.40256 0.219864L1.79779 0.231022C0.726401 0.231022 -0.11062 1.15715 0.0121434 2.21718C0.592478 7.00405 3.50531 19.3897 17.8574 28.7849C3.51647 38.1801 0.592478 50.5657 0.0121434 55.3525ZM25 24.7233C22.1988 23.1946 19.8216 21.5543 17.8239 19.8583H32.1649C30.1784 21.5543 27.8012 23.2058 25 24.7233ZM39.6311 10.9317C38.9838 12.0922 38.2026 13.2861 37.2875 14.5024H12.7237C11.7974 13.2861 11.0162 12.0922 10.38 10.9317H39.6311ZM10.3689 46.638C11.0162 45.4775 11.7974 44.2836 12.7125 43.0674H37.1982C38.1245 44.2836 38.9169 45.4775 39.5642 46.638H10.3689Z" fill="#FF0303"/>
</g>
<defs>
<clipPath id="clip0_1_132">
<rect width="50" height="57.13" fill="white" transform="translate(0 0.219727)"/>
</clipPath>
</defs>
</svg>
