<svg width="65" height="65" viewBox="0 0 65 65" fill="none" xmlns="http://www.w3.org/2000/svg">
<g id="Icon" clip-path="url(#clip0_1_101)">
<path id="Vector" d="M36.2025 41.0276H26.3275C22.9942 41.0276 20.1504 42.1734 17.7963 44.4651C15.4421 46.7568 14.2442 49.5484 14.2025 52.8401C13.9942 53.8401 13.8379 55.038 13.7338 56.4338C13.6296 57.8297 13.9108 58.8609 14.5775 59.5276C16.2858 61.1943 18.765 62.3609 22.015 63.0276C25.265 63.6943 28.3483 64.0276 31.265 64.0276C34.1817 64.0276 37.265 63.6943 40.515 63.0276C43.765 62.3609 46.2442 61.1943 47.9525 59.5276C48.5775 58.8609 48.8483 57.8297 48.765 56.4338C48.6817 55.038 48.5358 53.8401 48.3275 52.8401C48.2858 49.5484 47.0879 46.7568 44.7338 44.4651C42.3796 42.1734 39.5358 41.0276 36.2025 41.0276ZM46.265 57.5901C45.0983 58.7568 43.1713 59.6838 40.4838 60.3713C37.7963 61.0588 34.765 61.4026 31.39 61.4026C28.015 61.4026 24.9733 61.0693 22.265 60.4026C19.5567 59.7359 17.64 58.8401 16.515 57.7151C16.39 57.5068 16.3588 56.9443 16.4213 56.0276C16.4838 55.1109 16.5983 54.1734 16.765 53.2151V52.9651C16.765 50.3401 17.7025 48.1109 19.5775 46.2776C21.4525 44.4443 23.7025 43.5276 26.3275 43.5276V43.4026H36.3275C38.9525 43.4026 41.1921 44.3193 43.0463 46.1526C44.9004 47.9859 45.8275 50.2151 45.8275 52.8401V53.0901C46.0358 54.0068 46.1921 54.9338 46.2963 55.8713C46.4004 56.8088 46.39 57.3818 46.265 57.5901ZM31.265 39.4651C34.015 39.4651 36.3275 38.5172 38.2025 36.6213C40.0775 34.7255 41.015 32.4234 41.015 29.7151C41.015 27.0068 40.0775 24.7047 38.2025 22.8088C36.3275 20.913 34.015 19.9651 31.265 19.9651C28.5983 19.9651 26.3067 20.913 24.39 22.8088C22.4733 24.7047 21.515 27.0068 21.515 29.7151C21.515 32.4234 22.4525 34.7255 24.3275 36.6213C26.2025 38.5172 28.515 39.4651 31.265 39.4651ZM31.265 22.4651C33.265 22.4651 34.9838 23.1838 36.4213 24.6213C37.8588 26.0588 38.5775 27.7568 38.5775 29.7151C38.5775 31.6734 37.8588 33.3609 36.4213 34.7776C34.9838 36.1943 33.265 36.9026 31.265 36.9026C29.265 36.9026 27.5463 36.1943 26.1088 34.7776C24.6713 33.3609 23.9525 31.6734 23.9525 29.7151C23.9525 27.7568 24.6713 26.0588 26.1088 24.6213C27.5463 23.1838 29.265 22.4651 31.265 22.4651ZM29.9525 7.59009V17.4651H32.4525V7.46509L35.3275 10.2776L37.015 8.52759L31.265 2.77759L25.515 8.52759L27.2025 10.2776L29.9525 7.59009ZM15.515 28.4026V25.9026H5.39001L8.20251 23.1526L6.39001 21.4026L0.640015 27.0901L6.39001 32.8401L8.20251 31.0276L5.51501 28.4026H15.515ZM56.14 21.4026L54.3275 23.1526L57.14 25.9026H47.015V28.4026H57.015L54.3275 31.0276L56.14 32.8401L61.89 27.0901L56.14 21.4026Z" fill="#FF0000"/>
</g>
<defs>
<clipPath id="clip0_1_101">
<rect width="64" height="64" fill="white" transform="matrix(1 0 0 -1 0.640015 64.5901)"/>
</clipPath>
</defs>
</svg>
