<svg width="50" height="51" viewBox="0 0 50 51" fill="none" xmlns="http://www.w3.org/2000/svg">
<g id="Icon">
<path id="Vector" d="M7.66602 5.95801C7.4056 5.95801 7.1696 5.9987 6.95801 6.08008C6.74642 6.16146 6.55924 6.28353 6.39648 6.44629C6.23372 6.6416 6.10352 6.84505 6.00586 7.05664C5.9082 7.26823 5.85938 7.48796 5.85938 7.71582V34.5713C5.85938 35.0596 6.03841 35.4827 6.39648 35.8408C6.75456 36.1989 7.17773 36.3779 7.66602 36.3779C8.70768 36.3779 9.89583 36.443 11.2305 36.5732C12.5651 36.736 13.9486 37.029 15.3809 37.4521C16.8132 37.8753 18.2454 38.4613 19.6777 39.21C21.11 39.9912 22.4284 41.0166 23.6328 42.2861V14.21C23.6328 14.0472 23.6084 13.8844 23.5596 13.7217C23.5107 13.5589 23.4538 13.4124 23.3887 13.2822C22.3796 11.6872 21.1914 10.4176 19.8242 9.47363C18.457 8.49707 17.0492 7.74837 15.6006 7.22754C14.152 6.70671 12.7279 6.36491 11.3281 6.20215C9.92839 6.03939 8.70768 5.95801 7.66602 5.95801ZM44.1406 34.5713V7.71582C44.1406 7.48796 44.0918 7.26823 43.9941 7.05664C43.8965 6.84505 43.7663 6.6416 43.6035 6.44629C43.4408 6.28353 43.2536 6.16146 43.042 6.08008C42.8304 5.9987 42.5944 5.95801 42.334 5.95801C41.2923 5.95801 40.0716 6.03939 38.6719 6.20215C37.2721 6.36491 35.848 6.70671 34.3994 7.22754C32.9508 7.74837 31.543 8.49707 30.1758 9.47363C28.8086 10.4176 27.6204 11.6872 26.6113 13.2822C26.5462 13.4124 26.4893 13.5589 26.4404 13.7217C26.3916 13.8844 26.3672 14.0472 26.3672 14.21V42.2861C27.5716 41.0166 28.89 39.9912 30.3223 39.21C31.7546 38.4613 33.1868 37.8753 34.6191 37.4521C36.0514 37.029 37.4349 36.736 38.7695 36.5732C40.1042 36.443 41.2923 36.3779 42.334 36.3779C42.8223 36.3779 43.2454 36.1989 43.6035 35.8408C43.9616 35.4827 44.1406 35.0596 44.1406 34.5713ZM48.1934 12.1592H46.9238V34.5713C46.9238 35.8408 46.4762 36.915 45.5811 37.7939C44.6859 38.6729 43.6035 39.1123 42.334 39.1123C41.4551 39.1449 40.4622 39.21 39.3555 39.3076C38.2161 39.4378 37.0443 39.6657 35.8398 39.9912C34.6354 40.3167 33.431 40.7725 32.2266 41.3584C31.0221 41.9769 29.8991 42.7744 28.8574 43.751C30.6478 43.2952 32.4382 43.0186 34.2285 42.9209C36.0189 42.8232 37.7441 42.8151 39.4043 42.8965C41.0645 42.9779 42.6107 43.1488 44.043 43.4092C45.4753 43.637 46.7285 43.8649 47.8027 44.0928C48.0632 44.1579 48.3317 44.1579 48.6084 44.0928C48.8851 44.0277 49.1211 43.9137 49.3164 43.751C49.5443 43.5882 49.7152 43.3848 49.8291 43.1406C49.943 42.8965 50 42.6442 50 42.3838V13.917C50 13.4287 49.8291 13.0137 49.4873 12.6719C49.1455 12.3301 48.7142 12.1592 48.1934 12.1592ZM3.07617 34.5713V12.1592H1.80664C1.28581 12.1592 0.854492 12.3301 0.512695 12.6719C0.170898 13.0137 0 13.4287 0 13.917V42.3838C0 42.6442 0.0569661 42.8965 0.170898 43.1406C0.284831 43.3848 0.455729 43.5882 0.683594 43.751C0.878906 43.9137 1.11491 44.0277 1.3916 44.0928C1.66829 44.1579 1.93685 44.1579 2.19727 44.0928C3.27148 43.8649 4.52474 43.637 5.95703 43.4092C7.38932 43.1488 8.93555 42.9779 10.5957 42.8965C12.2559 42.8151 13.9811 42.8232 15.7715 42.9209C17.5618 43.0186 19.3522 43.2952 21.1426 43.751C20.1009 42.7744 18.9779 41.9769 17.7734 41.3584C16.569 40.7725 15.3646 40.3167 14.1602 39.9912C12.9557 39.6657 11.7839 39.4378 10.6445 39.3076C9.53776 39.21 8.54492 39.1449 7.66602 39.1123C6.39648 39.1123 5.31413 38.6729 4.41895 37.7939C3.52376 36.915 3.07617 35.8408 3.07617 34.5713Z" fill="#FF0303"/>
</g>
</svg>
