<svg width="65" height="65" viewBox="0 0 65 65" fill="none" xmlns="http://www.w3.org/2000/svg">
<g id="Icon" clip-path="url(#clip0_1_80)">
<path id="Vector" d="M40.33 58.2151H8.33002C7.91335 58.2151 7.54877 58.0588 7.23627 57.7463C6.92377 57.4338 6.76752 57.0484 6.76752 56.5901C6.76752 56.1318 6.92377 55.7463 7.23627 55.4338C7.54877 55.1213 7.91335 54.9651 8.33002 54.9651H40.33C40.7883 54.9651 41.1738 55.1213 41.4863 55.4338C41.7988 55.7463 41.955 56.1318 41.955 56.5901C41.955 57.0484 41.7988 57.4338 41.4863 57.7463C41.1738 58.0588 40.7883 58.2151 40.33 58.2151ZM46.7675 10.2151C46.3092 10.2151 45.9238 10.3713 45.6113 10.6838C45.2988 10.9963 45.1425 11.3609 45.1425 11.7776V59.7776C45.1425 60.2359 44.9863 60.6213 44.6738 60.9338C44.3613 61.2463 43.9967 61.4026 43.58 61.4026H8.33002C7.03835 61.4026 5.92377 60.9338 4.98627 59.9963C4.04877 59.0588 3.58002 57.9234 3.58002 56.5901C3.58002 55.2568 4.04877 54.1213 4.98627 53.1838C5.92377 52.2463 7.03835 51.7776 8.33002 51.7776H37.1425C38.4758 51.7776 39.6113 51.3088 40.5488 50.3713C41.4863 49.4338 41.955 48.2984 41.955 46.9651V8.59009C41.955 7.25676 41.4863 6.12134 40.5488 5.18384C39.6113 4.24634 38.4758 3.77759 37.1425 3.77759H5.14252C3.80918 3.77759 2.67377 4.24634 1.73627 5.18384C0.798767 6.12134 0.330017 7.25676 0.330017 8.59009V56.5901C0.330017 58.7984 1.11127 60.6838 2.67377 62.2463C4.23627 63.8088 6.12168 64.5901 8.33002 64.5901H43.58C44.8717 64.5901 45.9863 64.1213 46.9238 63.1838C47.8613 62.2463 48.33 61.1109 48.33 59.7776V11.7776C48.33 11.3609 48.1738 10.9963 47.8613 10.6838C47.5488 10.3713 47.1842 10.2151 46.7675 10.2151ZM5.14252 6.96509H37.1425C37.6008 6.96509 37.9863 7.12134 38.2988 7.43384C38.6113 7.74634 38.7675 8.13176 38.7675 8.59009V46.9651C38.7675 47.4234 38.6113 47.8088 38.2988 48.1213C37.9863 48.4338 37.6008 48.5901 37.1425 48.5901H8.33002C7.45502 48.5901 6.61127 48.7359 5.79877 49.0276C4.98627 49.3193 4.24668 49.7151 3.58002 50.2151V8.59009C3.58002 8.13176 3.73627 7.74634 4.04877 7.43384C4.36127 7.12134 4.72585 6.96509 5.14252 6.96509Z" fill="#FF0000"/>
</g>
<defs>
<clipPath id="clip0_1_80">
<rect width="64" height="64" fill="white" transform="matrix(1 0 0 -1 0.330017 64.5901)"/>
</clipPath>
</defs>
</svg>
