<svg width="50" height="46" viewBox="0 0 50 46" fill="none" xmlns="http://www.w3.org/2000/svg">
<g id="SVG">
<path id="Vector" d="M48.6092 3.60742C48.439 3.60742 48.2637 3.63954 48.0919 3.70811L33.3329 9.16242H33.332L18.4038 3.89212C17.8373 3.70379 17.2442 3.60767 16.6471 3.60742C16.0665 3.60742 15.4867 3.69856 14.9278 3.87996L1.75016 8.46371C1.23477 8.66986 0.792959 9.0257 0.481704 9.48534C0.17045 9.94497 0.00402969 10.4873 0.00390625 11.0424L0.00390625 41.1019C0.00390625 41.8996 0.65745 42.4924 1.39171 42.4924C1.56182 42.4924 1.73627 42.4603 1.90899 42.3917L16.668 36.9374L31.5962 42.2069C32.7236 42.5831 33.942 42.5877 35.0722 42.2199L48.2498 37.6361C48.7653 37.4301 49.2072 37.0743 49.5184 36.6146C49.8297 36.1549 49.9961 35.6125 49.9961 35.0574V4.99791C49.9961 4.20024 49.3426 3.60742 48.6092 3.60742ZM19.4453 8.67809L30.5547 12.6004V37.4217L19.4453 33.4994V8.67809ZM4.16992 37.1154V12.0328L15.2793 8.16773V33.009L15.2238 33.029L4.16992 37.1154ZM45.8301 34.0662L34.7207 37.9312V13.0908L34.7763 13.07L45.8301 8.98449V34.0662Z" fill="#FF0303"/>
</g>
</svg>
