<svg width="41" height="42" viewBox="0 0 41 42" fill="none" xmlns="http://www.w3.org/2000/svg">
<g id="Section &#226;&#134;&#146; List &#226;&#134;&#146; Item" clip-path="url(#clip0_1_270)">
<path id="Vector" d="M40.7598 8.48779L34.5537 2.28174C34.4737 2.20166 34.3802 2.1416 34.2735 2.10156C34.1667 2.06152 34.0466 2.0415 33.9131 2.0415H7.08693C6.95347 2.0415 6.83335 2.06152 6.72658 2.10156C6.61981 2.1416 6.52639 2.20166 6.44631 2.28174L0.240255 8.48779C0.106791 8.64795 0.0267131 8.82812 2.03452e-05 9.02832C-0.0266724 9.22852 0.0267131 9.42204 0.160177 9.60889L13.1328 29.3481C12.8659 29.882 12.659 30.4492 12.5122 31.0498C12.3654 31.6504 12.292 32.271 12.292 32.9116C12.292 34.0327 12.5189 35.1004 12.9727 36.1147C13.3998 37.1024 13.9803 37.9632 14.7144 38.6973C15.4484 39.4313 16.3093 40.0119 17.2969 40.439C18.3112 40.8927 19.3789 41.1196 20.5 41.1196C21.6211 41.1196 22.6888 40.8927 23.7031 40.439C24.6908 40.0119 25.5516 39.4313 26.2857 38.6973C27.0197 37.9632 27.6003 37.1024 28.0274 36.1147C28.4811 35.1004 28.708 34.0327 28.708 32.9116C28.708 32.271 28.6346 31.6504 28.4878 31.0498C28.341 30.4492 28.1341 29.882 27.8672 29.3481L40.8399 9.60889C40.9733 9.42204 41.0267 9.22852 41 9.02832C40.9733 8.82812 40.8932 8.64795 40.7598 8.48779ZM7.44729 3.80322H33.5528L37.9971 8.24756H31.791H9.20901H3.00295L7.44729 3.80322ZM30.1895 10.0093L20.5 24.7036L10.8106 10.0093H30.1895ZM2.48244 10.0093H8.72854L18.5381 24.9438C17.6572 25.1574 16.8431 25.5044 16.0957 25.9849C15.3483 26.4653 14.6944 27.0526 14.1338 27.7466L2.48244 10.0093ZM20.5 39.3579C18.7383 39.3579 17.2235 38.724 15.9556 37.4561C14.6877 36.1882 14.0537 34.6733 14.0537 32.9116C14.0537 31.1232 14.6877 29.6017 15.9556 28.3472C17.2235 27.0926 18.7383 26.4653 20.5 26.4653C22.2617 26.4653 23.7766 27.0926 25.0445 28.3472C26.3124 29.6017 26.9463 31.1232 26.9463 32.9116C26.9463 34.6733 26.3124 36.1882 25.0445 37.4561C23.7766 38.724 22.2617 39.3579 20.5 39.3579ZM26.8662 27.7466C26.3057 27.0526 25.6517 26.4653 24.9043 25.9849C24.1569 25.5044 23.3428 25.1574 22.4619 24.9438L32.2715 10.0093H38.5176L26.8662 27.7466ZM20.7803 29.7085H19.419C19.1787 29.7085 18.9719 29.7952 18.7984 29.9688C18.6249 30.1423 18.5381 30.3491 18.5381 30.5894C18.5381 30.8296 18.6249 31.0365 18.7984 31.21C18.9719 31.3835 19.1787 31.4702 19.419 31.4702H19.9395V36.1948C19.9395 36.4351 20.0196 36.6419 20.1797 36.8154C20.3399 36.9889 20.5401 37.0757 20.7803 37.0757C21.0205 37.0757 21.2274 36.9889 21.4009 36.8154C21.5744 36.6419 21.6612 36.4351 21.6612 36.1948V30.5894C21.6612 30.3491 21.5744 30.1423 21.4009 29.9688C21.2274 29.7952 21.0205 29.7085 20.7803 29.7085Z" fill="#F50C18"/>
</g>
<defs>
<clipPath id="clip0_1_270">
<rect width="41" height="41" fill="white" transform="matrix(1 0 0 -1 0 41.5601)"/>
</clipPath>
</defs>
</svg>
