<svg width="41" height="42" viewBox="0 0 41 42" fill="none" xmlns="http://www.w3.org/2000/svg">
<g id="Section &#226;&#134;&#146; List &#226;&#134;&#146; Item">
<path id="Vector" d="M36.1553 20.0591C35.4613 19.7121 34.6204 19.5119 33.6328 19.4585C32.6452 19.4051 32.1247 19.3784 32.0713 19.3784C31.8844 19.3784 31.7376 19.4318 31.6309 19.5386C31.5241 19.6453 31.4707 19.7922 31.4707 19.979C31.4707 20.1392 31.5241 20.2793 31.6309 20.3994C31.7376 20.5195 31.8844 20.5796 32.0713 20.5796C32.3916 20.5796 32.9455 20.613 33.7329 20.6797C34.5203 20.7464 35.1543 20.8999 35.6348 21.1401C35.6882 21.1668 35.7349 21.1868 35.7749 21.2002C35.8149 21.2135 35.8617 21.2202 35.915 21.2202C36.0218 21.2202 36.1219 21.1868 36.2153 21.1201C36.3088 21.0534 36.3822 20.9666 36.4355 20.8599C36.5156 20.7264 36.529 20.5796 36.4756 20.4194C36.4222 20.2593 36.3154 20.1392 36.1553 20.0591ZM39.1582 28.6274L36.6758 27.9067C36.6224 27.9067 36.5824 27.88 36.5557 27.8267C36.529 27.7733 36.5156 27.7199 36.5156 27.6665V26.8257C36.6224 26.7723 36.7225 26.7056 36.8159 26.6255C36.9093 26.5454 36.9961 26.4653 37.0762 26.3853C37.5033 25.9582 37.8369 25.471 38.0771 24.9238C38.3174 24.3766 38.4375 23.7961 38.4375 23.1821V22.021L38.6777 21.5405C38.8112 21.3003 38.9113 21.0334 38.978 20.7397C39.0448 20.4461 39.0781 20.1525 39.0781 19.8589V16.7759C39.0781 16.589 39.0181 16.4422 38.8979 16.3354C38.7778 16.2287 38.6377 16.1753 38.4775 16.1753H32.7119C31.6442 16.1753 30.7367 16.5423 29.9893 17.2764C29.2419 18.0104 28.8682 18.9113 28.8682 19.979V20.019C28.8682 20.2593 28.9015 20.4995 28.9683 20.7397C29.035 20.98 29.1217 21.2069 29.2285 21.4204L29.5088 22.021V23.022C29.5088 23.7961 29.689 24.5168 30.0493 25.1841C30.4097 25.8514 30.8835 26.3853 31.4707 26.7856V27.6665C31.4707 27.7466 31.444 27.8066 31.3906 27.8467C31.3372 27.8867 31.1904 27.9334 30.9502 27.9868L29.749 28.3472L26.2256 27.0659C26.2523 26.9858 26.2523 26.9058 26.2256 26.8257C26.1989 26.7456 26.1455 26.6789 26.0654 26.6255L24.9443 25.4243V23.4624C25.0244 23.409 25.0911 23.3623 25.1445 23.3223C25.1979 23.2822 25.2513 23.2355 25.3047 23.1821C26.0254 22.5148 26.5793 21.734 26.9663 20.8398C27.3534 19.9456 27.5469 19.0181 27.5469 18.0571V16.4556C27.7604 16.0018 27.9206 15.528 28.0273 15.0342C28.1341 14.5404 28.1875 14.0399 28.1875 13.5327V7.12646C28.1875 6.96631 28.1274 6.82617 28.0073 6.70605C27.8872 6.58594 27.7471 6.52588 27.5869 6.52588H18.5781C17.0033 6.52588 15.6553 7.08643 14.5342 8.20752C13.4131 9.32861 12.8525 10.6766 12.8525 12.2515V13.5327C12.8525 14.0399 12.9059 14.5404 13.0127 15.0342C13.1195 15.528 13.2796 16.0018 13.4932 16.4556V17.8169C13.4932 18.938 13.7267 19.9857 14.1938 20.96C14.661 21.9342 15.2816 22.755 16.0557 23.4224V25.4243L14.9346 26.6255C14.8812 26.6789 14.8411 26.7456 14.8145 26.8257C14.7878 26.9058 14.7744 26.9858 14.7744 27.0659L11.0908 28.4272C10.9574 28.4806 10.8239 28.5407 10.6904 28.6074C10.557 28.6742 10.4368 28.7476 10.3301 28.8276L9.76953 28.5073C10.6237 28.1336 11.2176 27.7399 11.5513 27.3262C11.8849 26.9124 12.0518 26.6922 12.0518 26.6655C12.1051 26.5854 12.1318 26.4987 12.1318 26.4053C12.1318 26.3118 12.1051 26.2118 12.0518 26.105C11.8382 25.6779 11.7048 25.1107 11.6514 24.4033C11.598 23.696 11.5579 23.022 11.5312 22.3813C11.5312 22.1678 11.5246 21.9609 11.5112 21.7607C11.4979 21.5605 11.4912 21.3804 11.4912 21.2202C11.3844 19.7788 10.8439 18.5776 9.86963 17.6167C8.89534 16.6558 7.72754 16.1753 6.36621 16.1753C5.03158 16.1753 3.87712 16.6558 2.90283 17.6167C1.92855 18.5776 1.38802 19.7788 1.28125 21.2202C1.28125 21.3804 1.27458 21.5605 1.26123 21.7607C1.24788 21.9609 1.24121 22.1678 1.24121 22.3813C1.21452 23.022 1.17448 23.696 1.12109 24.4033C1.06771 25.1107 0.934245 25.6779 0.720703 26.105C0.667318 26.2118 0.640625 26.3118 0.640625 26.4053C0.640625 26.4987 0.667318 26.5854 0.720703 26.6655C0.720703 26.6922 0.887533 26.9124 1.22119 27.3262C1.55485 27.7399 2.14876 28.1336 3.00293 28.5073L1.40137 29.3081C0.974284 29.5216 0.633952 29.8353 0.380371 30.249C0.12679 30.6628 0 31.1099 0 31.5903V36.0347C0 36.1948 0.0600586 36.335 0.180176 36.4551C0.300293 36.5752 0.44043 36.6353 0.600586 36.6353C0.760742 36.6353 0.900879 36.5752 1.021 36.4551C1.14111 36.335 1.20117 36.1948 1.20117 36.0347V31.5903C1.20117 31.3234 1.2679 31.0832 1.40137 30.8696C1.53483 30.6561 1.70833 30.4959 1.92188 30.3892L3.92383 29.3882L4.64453 30.0688C4.88477 30.2824 5.15837 30.4492 5.46533 30.5693C5.7723 30.6895 6.07259 30.7495 6.36621 30.7495C6.68652 30.7495 7.00016 30.6895 7.30713 30.5693C7.6141 30.4492 7.8877 30.2824 8.12793 30.0688L8.80859 29.3882L9.48926 29.7085C9.3291 29.9754 9.20898 30.249 9.12891 30.5293C9.04883 30.8096 9.00879 31.0965 9.00879 31.3901V36.0347C9.00879 36.1948 9.06217 36.335 9.16895 36.4551C9.27572 36.5752 9.42253 36.6353 9.60938 36.6353C9.76953 36.6353 9.90967 36.5752 10.0298 36.4551C10.1499 36.335 10.21 36.1948 10.21 36.0347V31.3901C10.21 30.9897 10.3234 30.616 10.5503 30.269C10.7772 29.922 11.0908 29.6818 11.4912 29.5483L15.375 28.147L17.0166 30.5493C17.1234 30.7095 17.2568 30.8363 17.417 30.9297C17.5771 31.0231 17.7373 31.0832 17.8975 31.1099C17.9242 31.1099 17.9508 31.1099 17.9775 31.1099C18.0042 31.1099 18.0309 31.1099 18.0576 31.1099C18.2178 31.1099 18.3713 31.0832 18.5181 31.0298C18.6649 30.9764 18.7917 30.883 18.8984 30.7495L19.8994 29.7485V36.0347C19.8994 36.1948 19.9595 36.335 20.0796 36.4551C20.1997 36.5752 20.3398 36.6353 20.5 36.6353C20.6602 36.6353 20.8003 36.5752 20.9204 36.4551C21.0405 36.335 21.1006 36.1948 21.1006 36.0347V29.7485L22.1016 30.7495C22.2083 30.883 22.3418 30.9764 22.502 31.0298C22.6621 31.0832 22.8223 31.1099 22.9824 31.1099C23.0091 31.1099 23.0291 31.1099 23.0425 31.1099C23.0558 31.1099 23.0758 31.1099 23.1025 31.1099C23.2894 31.0832 23.4629 31.0231 23.623 30.9297C23.7832 30.8363 23.9167 30.7095 24.0234 30.5493L25.625 28.147L29.5088 29.5483C29.9092 29.6818 30.2295 29.922 30.4697 30.269C30.71 30.616 30.8301 30.9897 30.8301 31.3901V36.0347C30.8301 36.1948 30.8901 36.335 31.0103 36.4551C31.1304 36.5752 31.2705 36.6353 31.4307 36.6353C31.5908 36.6353 31.731 36.5752 31.8511 36.4551C31.9712 36.335 32.0312 36.1948 32.0312 36.0347V31.3901C32.0312 30.9897 31.9512 30.596 31.791 30.209C31.6309 29.8219 31.4173 29.4816 31.1504 29.188L31.2705 29.1479C31.3506 29.1213 31.4373 29.0946 31.5308 29.0679C31.6242 29.0412 31.7243 29.0011 31.8311 28.9478L33.3926 30.5093V36.0347C33.3926 36.1948 33.446 36.335 33.5527 36.4551C33.6595 36.5752 33.8063 36.6353 33.9932 36.6353C34.1533 36.6353 34.2935 36.5752 34.4136 36.4551C34.5337 36.335 34.5938 36.1948 34.5938 36.0347V30.5093L36.1152 28.9878C36.1419 28.9878 36.1753 29.0011 36.2153 29.0278C36.2554 29.0545 36.3021 29.0679 36.3555 29.0679L38.8379 29.7886C39.1315 29.8687 39.3651 30.0288 39.5386 30.269C39.7121 30.5093 39.7988 30.7762 39.7988 31.0698V36.0347C39.7988 36.1948 39.8589 36.335 39.979 36.4551C40.0991 36.5752 40.2393 36.6353 40.3994 36.6353C40.5596 36.6353 40.6997 36.5752 40.8198 36.4551C40.9399 36.335 41 36.1948 41 36.0347V31.0698C41 30.5093 40.8265 30.0021 40.4795 29.5483C40.1325 29.0946 39.6921 28.7876 39.1582 28.6274ZM3.84375 27.5464C3.2832 27.3595 2.85612 27.146 2.5625 26.9058C2.26888 26.6655 2.05534 26.4653 1.92188 26.3052C2.00195 26.0916 2.06868 25.8647 2.12207 25.6245C2.17546 25.3843 2.22884 25.144 2.28223 24.9038C2.44238 25.2775 2.65592 25.6312 2.92285 25.9648C3.18978 26.2985 3.49674 26.5854 3.84375 26.8257V27.5464ZM7.28711 29.188C7.04688 29.4282 6.74658 29.5483 6.38623 29.5483C6.02588 29.5483 5.72559 29.4282 5.48535 29.188L4.9248 28.6675C4.9515 28.5607 4.97819 28.4606 5.00488 28.3672C5.03158 28.2738 5.04492 28.1737 5.04492 28.0669V27.4263C5.25846 27.5063 5.47868 27.5597 5.70557 27.5864C5.93245 27.6131 6.15267 27.6265 6.36621 27.6265C6.60645 27.6265 6.84001 27.6131 7.06689 27.5864C7.29378 27.5597 7.50065 27.5063 7.6875 27.4263V28.0669C7.6875 28.1737 7.70085 28.2738 7.72754 28.3672C7.75423 28.4606 7.79427 28.5607 7.84766 28.6675L7.28711 29.188ZM6.36621 26.4253C5.48535 26.4253 4.72461 26.105 4.08398 25.4644C3.44336 24.8237 3.12305 24.063 3.12305 23.1821C3.12305 23.022 3.06299 22.8818 2.94287 22.7617C2.82275 22.6416 2.68262 22.5815 2.52246 22.5815C2.49577 22.5815 2.47575 22.5815 2.4624 22.5815C2.44906 22.5815 2.44238 22.5815 2.44238 22.5815C2.44238 22.5549 2.44238 22.5282 2.44238 22.5015C2.44238 22.4748 2.44238 22.4481 2.44238 22.4214C2.44238 22.2345 2.44906 22.041 2.4624 21.8408C2.47575 21.6406 2.48242 21.4604 2.48242 21.3003C2.50911 20.7664 2.62923 20.2593 2.84277 19.7788C3.05632 19.2983 3.33659 18.8713 3.68359 18.4976C4.05729 18.1239 4.47103 17.8436 4.9248 17.6567C5.37858 17.4699 5.85905 17.3765 6.36621 17.3765C6.87337 17.3765 7.36051 17.4699 7.82764 17.6567C8.29476 17.8436 8.70182 18.1239 9.04883 18.4976C9.42253 18.8713 9.70947 19.2983 9.90967 19.7788C10.1099 20.2593 10.2367 20.7664 10.29 21.3003C10.29 21.4604 10.2967 21.6406 10.3101 21.8408C10.3234 22.041 10.3301 22.2345 10.3301 22.4214C10.3301 22.4481 10.3301 22.4681 10.3301 22.4814C10.3301 22.4948 10.3301 22.5148 10.3301 22.5415C10.0098 22.0343 9.59603 21.6006 9.08887 21.2402C8.58171 20.8799 8.00781 20.5929 7.36719 20.3794C6.75326 20.1925 6.22607 20.0858 5.78564 20.0591C5.34521 20.0324 5.11165 20.019 5.08496 20.019C5.00488 20.019 4.93148 20.0324 4.86475 20.0591C4.79801 20.0858 4.72461 20.1258 4.64453 20.1792L3.56348 21.3003C3.45671 21.4338 3.40332 21.5806 3.40332 21.7407C3.40332 21.9009 3.47005 22.0477 3.60352 22.1812C3.71029 22.2879 3.85042 22.3413 4.02393 22.3413C4.19743 22.3413 4.33756 22.2746 4.44434 22.1411L5.36523 21.2202C5.73893 21.2469 6.41292 21.3937 7.38721 21.6606C8.36149 21.9276 9.10221 22.6082 9.60938 23.7026C9.47591 24.4767 9.10889 25.124 8.5083 25.6445C7.90771 26.165 7.19369 26.4253 6.36621 26.4253ZM8.88867 27.5464V26.8657C9.26237 26.6255 9.58268 26.3385 9.84961 26.0049C10.1165 25.6712 10.3301 25.3042 10.4902 24.9038C10.5169 25.144 10.5636 25.3843 10.6304 25.6245C10.6971 25.8647 10.7705 26.0916 10.8506 26.3052C10.7171 26.4653 10.4969 26.6655 10.1899 26.9058C9.88298 27.146 9.44922 27.3595 8.88867 27.5464ZM14.6943 17.8169V16.3354C14.6943 16.2821 14.6877 16.2354 14.6743 16.1953C14.661 16.1553 14.641 16.1086 14.6143 16.0552C14.4274 15.6548 14.2873 15.2477 14.1938 14.834C14.1004 14.4202 14.0537 13.9865 14.0537 13.5327V12.2515C14.0537 10.9969 14.4941 9.9292 15.375 9.04834C16.2559 8.16748 17.3236 7.72705 18.5781 7.72705H26.9863V13.5327C26.9863 13.9865 26.9329 14.4202 26.8262 14.834C26.7194 15.2477 26.5726 15.6548 26.3857 16.0552C26.359 16.1086 26.3457 16.1553 26.3457 16.1953C26.3457 16.2354 26.3457 16.2821 26.3457 16.3354V18.0571C26.3457 18.8579 26.1855 19.6253 25.8652 20.3594C25.5449 21.0934 25.0911 21.7407 24.5039 22.3013C24.4238 22.3547 24.3438 22.4147 24.2637 22.4814C24.1836 22.5482 24.1035 22.6082 24.0234 22.6616C24.0234 22.6616 24.0234 22.6683 24.0234 22.6816C24.0234 22.695 24.0234 22.7017 24.0234 22.7017C23.4629 23.1021 22.849 23.4023 22.1816 23.6025C21.5143 23.8027 20.8203 23.8895 20.0996 23.8628C18.5781 23.756 17.2969 23.1221 16.2559 21.9609C15.2148 20.7998 14.6943 19.4185 14.6943 17.8169ZM18.0576 29.9087C18.0576 29.9087 18.0443 29.9087 18.0176 29.9087L16.1357 27.106L16.7363 26.4653L19.5791 28.3872L18.0576 29.9087ZM20.5 27.5864L17.2568 25.3843V24.2632C17.6839 24.4767 18.131 24.6502 18.5981 24.7837C19.0653 24.9172 19.5524 25.0106 20.0596 25.064C20.1396 25.064 20.2131 25.064 20.2798 25.064C20.3465 25.064 20.4199 25.064 20.5 25.064C21.0872 25.064 21.6545 24.9972 22.2017 24.8638C22.7489 24.7303 23.2627 24.5301 23.7432 24.2632V25.3843L20.5 27.5864ZM23.0225 29.9087C23.0225 29.9087 23.0158 29.9087 23.0024 29.9087C22.9891 29.9087 22.9824 29.9087 22.9824 29.9087C22.9824 29.9087 22.9757 29.9087 22.9624 29.9087C22.9491 29.9087 22.9424 29.9087 22.9424 29.9087L21.4609 28.3872L24.2637 26.4653L24.8643 27.106L23.0225 29.9087ZM33.9932 29.3882L32.6318 28.0269C32.6318 27.9735 32.6385 27.9201 32.6519 27.8667C32.6652 27.8133 32.6719 27.7466 32.6719 27.6665V27.4263C32.8587 27.4797 33.0456 27.5264 33.2324 27.5664C33.4193 27.6064 33.6195 27.6265 33.833 27.6265C33.8597 27.6265 33.8864 27.6265 33.9131 27.6265C33.9398 27.6265 33.9665 27.6265 33.9932 27.6265C34.2067 27.6265 34.4269 27.6131 34.6538 27.5864C34.8807 27.5597 35.1009 27.5063 35.3145 27.4263V27.6665C35.3145 27.7199 35.3145 27.7799 35.3145 27.8467C35.3145 27.9134 35.3278 27.9735 35.3545 28.0269L33.9932 29.3882ZM36.2354 25.5044C35.915 25.8247 35.5547 26.0649 35.1543 26.2251C34.7539 26.3853 34.3268 26.452 33.873 26.4253C33.0189 26.3986 32.2782 26.0516 31.6509 25.3843C31.0236 24.717 30.71 23.9295 30.71 23.022V21.9009C30.71 21.8475 30.71 21.8008 30.71 21.7607C30.71 21.7207 30.6966 21.674 30.6699 21.6206L30.3096 20.8999C30.2295 20.7397 30.1694 20.5863 30.1294 20.4395C30.0894 20.2926 30.0693 20.1525 30.0693 20.019V19.979C30.0693 19.2583 30.3296 18.6444 30.8501 18.1372C31.3706 17.63 31.9912 17.3765 32.7119 17.3765H37.877V19.8589C37.877 20.0457 37.8503 20.2393 37.7969 20.4395C37.7435 20.6396 37.6768 20.8332 37.5967 21.02L37.2764 21.6206C37.2764 21.674 37.2697 21.7207 37.2563 21.7607C37.243 21.8008 37.2363 21.8475 37.2363 21.9009V23.1821C37.2363 23.6359 37.1496 24.063 36.9761 24.4634C36.8026 24.8638 36.5557 25.2108 36.2354 25.5044ZM37.8369 31.5503C37.6768 31.5503 37.5366 31.6104 37.4165 31.7305C37.2964 31.8506 37.2363 31.9907 37.2363 32.1509V36.0347C37.2363 36.1948 37.2964 36.335 37.4165 36.4551C37.5366 36.5752 37.6768 36.6353 37.8369 36.6353C37.9971 36.6353 38.1372 36.5752 38.2573 36.4551C38.3774 36.335 38.4375 36.1948 38.4375 36.0347V32.1509C38.4375 31.9907 38.3774 31.8506 38.2573 31.7305C38.1372 31.6104 37.9971 31.5503 37.8369 31.5503ZM3.16309 32.3511C3.00293 32.3511 2.86279 32.4111 2.74268 32.5312C2.62256 32.6514 2.5625 32.7915 2.5625 32.9517V36.0347C2.5625 36.1948 2.62256 36.335 2.74268 36.4551C2.86279 36.5752 3.00293 36.6353 3.16309 36.6353C3.32324 36.6353 3.46338 36.5752 3.5835 36.4551C3.70361 36.335 3.76367 36.1948 3.76367 36.0347V32.9517C3.76367 32.7915 3.70361 32.6514 3.5835 32.5312C3.46338 32.4111 3.32324 32.3511 3.16309 32.3511ZM25.4248 13.7729C24.3037 12.6252 22.7756 12.0446 20.8403 12.0312C18.9051 12.0179 17.4437 12.078 16.4561 12.2114C16.1624 12.2648 15.9155 12.4049 15.7153 12.6318C15.5151 12.8587 15.415 13.1323 15.415 13.4526V14.814C15.415 15.0008 15.4751 15.1476 15.5952 15.2544C15.7153 15.3612 15.8555 15.4146 16.0156 15.4146C16.1758 15.4146 16.3159 15.3612 16.436 15.2544C16.5562 15.1476 16.6162 15.0008 16.6162 14.814V13.4526C16.6162 13.4259 16.6162 13.4126 16.6162 13.4126C16.6162 13.4126 16.6296 13.4126 16.6562 13.4126C17.0299 13.3592 17.5705 13.2992 18.2778 13.2324C18.9852 13.1657 19.7393 13.159 20.54 13.2124C21.4743 13.2658 22.2817 13.4126 22.9624 13.6528C23.6431 13.8931 24.1836 14.2134 24.584 14.6138C24.6908 14.7205 24.8309 14.7739 25.0044 14.7739C25.1779 14.7739 25.318 14.7205 25.4248 14.6138C25.5316 14.507 25.585 14.3669 25.585 14.1934C25.585 14.0199 25.5316 13.8797 25.4248 13.7729ZM13.4531 32.8716C13.293 32.8716 13.1528 32.925 13.0327 33.0317C12.9126 33.1385 12.8525 33.2853 12.8525 33.4722V36.0347C12.8525 36.1948 12.9126 36.335 13.0327 36.4551C13.1528 36.5752 13.293 36.6353 13.4531 36.6353C13.6133 36.6353 13.7534 36.5752 13.8735 36.4551C13.9937 36.335 14.0537 36.1948 14.0537 36.0347V33.4722C14.0537 33.2853 13.9937 33.1385 13.8735 33.0317C13.7534 32.925 13.6133 32.8716 13.4531 32.8716ZM27.5869 32.8716C27.4001 32.8716 27.2533 32.925 27.1465 33.0317C27.0397 33.1385 26.9863 33.2853 26.9863 33.4722V36.0347C26.9863 36.1948 27.0397 36.335 27.1465 36.4551C27.2533 36.5752 27.4001 36.6353 27.5869 36.6353C27.7471 36.6353 27.8872 36.5752 28.0073 36.4551C28.1274 36.335 28.1875 36.1948 28.1875 36.0347V33.4722C28.1875 33.2853 28.1274 33.1385 28.0073 33.0317C27.8872 32.925 27.7471 32.8716 27.5869 32.8716Z" fill="#F50C18"/>
</g>
</svg>
