<svg width="50" height="51" viewBox="0 0 50 51" fill="none" xmlns="http://www.w3.org/2000/svg">
<g id="SVG">
<path id="Vector" d="M0.78125 25.7803C0.78125 12.4014 11.6211 1.56152 25 1.56152C38.3789 1.56152 49.2188 12.4014 49.2188 25.7803C49.2188 39.1592 38.3789 49.999 25 49.999C11.6211 49.999 0.78125 39.1592 0.78125 25.7803ZM29.2969 37.1084V25.7803H36.2207C37.2656 25.7803 37.793 24.5107 37.0508 23.7783L25.8301 12.6162C25.3711 12.1572 24.6387 12.1572 24.1797 12.6162L12.9492 23.7783C12.207 24.5205 12.7344 25.7803 13.7793 25.7803H20.7031V37.1084C20.7031 37.7529 21.2305 38.2803 21.875 38.2803H28.125C28.7695 38.2803 29.2969 37.7529 29.2969 37.1084Z" fill="#FF0303"/>
</g>
</svg>
