<svg width="65" height="65" viewBox="0 0 65 65" fill="none" xmlns="http://www.w3.org/2000/svg">
<g id="Icon" clip-path="url(#clip0_1_88)">
<path id="Vector" d="M64.605 12.9651L54.9175 3.27759C54.7925 3.15259 54.6467 3.05884 54.48 2.99634C54.3133 2.93384 54.1258 2.90259 53.9175 2.90259H12.0425C11.8342 2.90259 11.6467 2.93384 11.48 2.99634C11.3133 3.05884 11.1675 3.15259 11.0425 3.27759L1.35501 12.9651C1.14668 13.2151 1.02168 13.4963 0.98001 13.8088C0.938343 14.1213 1.02168 14.4234 1.23001 14.7151L21.48 45.5276C21.0633 46.3609 20.7404 47.2463 20.5113 48.1838C20.2821 49.1213 20.1675 50.0901 20.1675 51.0901C20.1675 52.8401 20.5217 54.5068 21.23 56.0901C21.8967 57.6318 22.8029 58.9755 23.9488 60.1213C25.0946 61.2672 26.4383 62.1734 27.98 62.8401C29.5633 63.5484 31.23 63.9026 32.98 63.9026C34.73 63.9026 36.3967 63.5484 37.98 62.8401C39.5217 62.1734 40.8654 61.2672 42.0113 60.1213C43.1571 58.9755 44.0633 57.6318 44.73 56.0901C45.4383 54.5068 45.7925 52.8401 45.7925 51.0901C45.7925 50.0901 45.6779 49.1213 45.4488 48.1838C45.2196 47.2463 44.8967 46.3609 44.48 45.5276L64.73 14.7151C64.9383 14.4234 65.0217 14.1213 64.98 13.8088C64.9383 13.4963 64.8133 13.2151 64.605 12.9651ZM12.605 5.65259H53.355L60.2925 12.5901H50.605H15.355H5.66751L12.605 5.65259ZM48.105 15.3401L32.98 38.2776L17.855 15.3401H48.105ZM4.85501 15.3401H14.605L29.9175 38.6526C28.5425 38.9859 27.2717 39.5276 26.105 40.2776C24.9383 41.0276 23.9175 41.9443 23.0425 43.0276L4.85501 15.3401ZM32.98 61.1526C30.23 61.1526 27.8654 60.163 25.8863 58.1838C23.9071 56.2047 22.9175 53.8401 22.9175 51.0901C22.9175 48.2984 23.9071 45.9234 25.8863 43.9651C27.8654 42.0068 30.23 41.0276 32.98 41.0276C35.73 41.0276 38.0946 42.0068 40.0738 43.9651C42.0529 45.9234 43.0425 48.2984 43.0425 51.0901C43.0425 53.8401 42.0529 56.2047 40.0738 58.1838C38.0946 60.163 35.73 61.1526 32.98 61.1526ZM42.9175 43.0276C42.0425 41.9443 41.0217 41.0276 39.855 40.2776C38.6883 39.5276 37.4175 38.9859 36.0425 38.6526L51.355 15.3401H61.105L42.9175 43.0276ZM33.4175 46.0901H31.2925C30.9175 46.0901 30.5946 46.2255 30.3238 46.4963C30.0529 46.7672 29.9175 47.0901 29.9175 47.4651C29.9175 47.8401 30.0529 48.163 30.3238 48.4338C30.5946 48.7047 30.9175 48.8401 31.2925 48.8401H32.105V56.2151C32.105 56.5901 32.23 56.913 32.48 57.1838C32.73 57.4547 33.0425 57.5901 33.4175 57.5901C33.7925 57.5901 34.1154 57.4547 34.3863 57.1838C34.6571 56.913 34.7925 56.5901 34.7925 56.2151V47.4651C34.7925 47.0901 34.6571 46.7672 34.3863 46.4963C34.1154 46.2255 33.7925 46.0901 33.4175 46.0901Z" fill="#F74C3A"/>
</g>
<defs>
<clipPath id="clip0_1_88">
<rect width="64" height="64" fill="white" transform="matrix(1 0 0 -1 0.980011 64.5901)"/>
</clipPath>
</defs>
</svg>
