<svg width="81" height="82" viewBox="0 0 81 82" fill="none" xmlns="http://www.w3.org/2000/svg">
<path d="M40.5 16.6395C27.3568 16.6395 16.6724 27.3237 16.6543 40.4665C16.6543 44.968 17.9198 49.361 20.3062 53.1393L20.8666 54.0432L18.4622 62.8292L27.4834 60.4609L28.3512 60.9852C32.0031 63.1546 36.1973 64.3116 40.4819 64.3116H40.5C53.6251 64.3116 64.5988 53.6274 64.5988 40.4846C64.5988 34.1211 61.8508 28.1372 57.3493 23.6358C52.8296 19.1162 46.8637 16.6395 40.5 16.6395ZM54.5109 50.6987C53.9143 52.38 51.0579 53.8986 49.6839 54.0974C47.406 54.4409 45.6343 54.2601 41.0966 52.3077C33.9194 49.1982 29.2189 41.967 28.8574 41.497C28.4958 41.0269 25.9286 37.6102 25.9286 34.0849C25.9286 30.5597 27.7727 28.8242 28.4416 28.1011C29.0924 27.378 29.8698 27.1972 30.3579 27.1972C30.8279 27.1972 31.3161 27.1972 31.7319 27.2152C32.1658 27.2333 32.7624 27.0525 33.3409 28.4446C33.9375 29.8727 35.3657 33.398 35.5465 33.7595C35.7272 34.1211 35.8538 34.5369 35.6007 35.0069C34.2267 37.7548 32.7624 37.6463 33.5036 38.9118C36.2696 43.6663 39.0356 45.3115 43.2479 47.4266C43.9711 47.7882 44.3869 47.7339 44.8027 47.2458C45.2185 46.7758 46.5925 45.1487 47.0625 44.4437C47.5326 43.7206 48.0207 43.8471 48.6715 44.0821C49.3224 44.3172 52.8477 46.0527 53.5708 46.4142C54.294 46.7758 54.764 46.9566 54.9448 47.2458C55.1075 47.5893 55.1075 49.0355 54.5109 50.6987ZM72.3184 0.224609H8.68164C3.89081 0.224609 0.00390625 4.11141 0.00390625 8.90211V72.5371C0.00390625 77.3278 3.89081 81.2146 8.68164 81.2146H72.3184C77.1092 81.2146 80.9961 77.3278 80.9961 72.5371V8.90211C80.9961 4.11141 77.1092 0.224609 72.3184 0.224609ZM40.4819 69.1384C35.673 69.1384 30.9545 67.9272 26.7783 65.6493L11.5742 69.6446L15.6419 54.7844C13.129 50.4456 11.8092 45.5103 11.8092 40.4484C11.8273 24.6482 24.6812 11.7946 40.4819 11.7946C48.1473 11.7946 55.3425 14.7775 60.7661 20.2009C66.1716 25.6244 69.4258 32.8195 69.4258 40.4846C69.4258 56.2849 56.2826 69.1384 40.4819 69.1384Z" fill="#61CE70"/>
</svg>
