<svg width="81" height="93" viewBox="0 0 81 93" fill="none" xmlns="http://www.w3.org/2000/svg">
<g id="Link &#226;&#134;&#146; SVG">
<path id="Vector" d="M40.5 22.64C27.3568 22.64 16.6724 33.3242 16.6543 46.467C16.6543 50.9685 17.9198 55.3614 20.3062 59.1398L20.8666 60.0437L18.4622 68.8296L27.4834 66.4614L28.3512 66.9857C32.0031 69.155 36.1973 70.312 40.4819 70.312H40.5C53.6251 70.312 64.5988 59.6279 64.5988 46.4851C64.5988 40.1216 61.8508 34.1377 57.3493 29.6363C52.8296 25.1167 46.8637 22.64 40.5 22.64ZM54.5109 56.6992C53.9143 58.3805 51.0579 59.899 49.6839 60.0979C47.406 60.4414 45.6343 60.2606 41.0966 58.3082C33.9194 55.1987 29.2189 47.9675 28.8574 47.4975C28.4958 47.0274 25.9286 43.6107 25.9286 40.0854C25.9286 36.5602 27.7727 34.8247 28.4416 34.1016C29.0924 33.3784 29.8698 33.1977 30.3579 33.1977C30.8279 33.1977 31.3161 33.1977 31.7319 33.2157C32.1658 33.2338 32.7624 33.053 33.3409 34.4451C33.9375 35.8732 35.3657 39.3985 35.5465 39.76C35.7272 40.1216 35.8538 40.5374 35.6007 41.0074C34.2267 43.7553 32.7624 43.6468 33.5036 44.9123C36.2696 49.6668 39.0356 51.3119 43.2479 53.4271C43.9711 53.7886 44.3869 53.7344 44.8027 53.2463C45.2185 52.7763 46.5925 51.1492 47.0625 50.4442C47.5326 49.7211 48.0207 49.8476 48.6715 50.0826C49.3224 50.3176 52.8477 52.0531 53.5708 52.4147C54.294 52.7763 54.764 52.9571 54.9448 53.2463C55.1075 53.5898 55.1075 55.036 54.5109 56.6992ZM72.3184 6.2251H8.68164C3.89081 6.2251 0.00390625 10.1119 0.00390625 14.9026V78.5376C0.00390625 83.3283 3.89081 87.2151 8.68164 87.2151H72.3184C77.1092 87.2151 80.9961 83.3283 80.9961 78.5376V14.9026C80.9961 10.1119 77.1092 6.2251 72.3184 6.2251ZM40.4819 75.1389C35.673 75.1389 30.9545 73.9277 26.7783 71.6498L11.5742 75.6451L15.6419 60.7849C13.129 56.4461 11.8092 51.5108 11.8092 46.4489C11.8273 30.6486 24.6812 17.7951 40.4819 17.7951C48.1473 17.7951 55.3425 20.778 60.7661 26.2014C66.1716 31.6249 69.4258 38.82 69.4258 46.4851C69.4258 62.2854 56.2826 75.1389 40.4819 75.1389Z" fill="#F60404"/>
</g>
</svg>
