<svg width="18" height="18" viewBox="0 0 18 18" fill="none" xmlns="http://www.w3.org/2000/svg">
<g id="SVG">
<path id="Vector" d="M14.4896 3.5541C13.0984 2.15957 11.2457 1.39258 9.27671 1.39258C5.21265 1.39258 1.90562 4.69961 1.90562 8.76367C1.90562 10.0619 2.24429 11.3303 2.88843 12.4492L1.84253 16.2676L5.75054 15.2416C6.82632 15.8293 8.03823 16.1381 9.27339 16.1381H9.27671C13.3375 16.1381 16.7175 12.8311 16.7175 8.76699C16.7175 6.79805 15.8808 4.94863 14.4896 3.5541ZM9.27671 14.8963C8.17437 14.8963 7.09526 14.6008 6.15561 14.043L5.93315 13.9102L3.61558 14.5178L4.23315 12.2566L4.08706 12.0242C3.4728 11.048 3.15073 9.92246 3.15073 8.76367C3.15073 5.38691 5.89995 2.6377 9.28003 2.6377C10.9169 2.6377 12.4542 3.2752 13.6097 4.43398C14.7652 5.59277 15.4757 7.13008 15.4724 8.76699C15.4724 12.1471 12.6535 14.8963 9.27671 14.8963ZM12.6369 10.3076C12.4542 10.2146 11.5478 9.76973 11.3785 9.70996C11.2091 9.64688 11.0863 9.61699 10.9634 9.80293C10.8406 9.98887 10.4886 10.4006 10.3791 10.5268C10.2728 10.6496 10.1632 10.6662 9.98062 10.5732C8.89819 10.032 8.18765 9.60703 7.47378 8.38184C7.28452 8.05645 7.66304 8.07969 8.01499 7.37578C8.07476 7.25293 8.04487 7.14668 7.99839 7.05371C7.9519 6.96074 7.58335 6.0543 7.43062 5.68574C7.2812 5.32715 7.12847 5.37695 7.01558 5.37031C6.90933 5.36367 6.78647 5.36367 6.66362 5.36367C6.54077 5.36367 6.34155 5.41016 6.17222 5.59277C6.00288 5.77871 5.52808 6.22363 5.52808 7.13008C5.52808 8.03652 6.18882 8.91309 6.27847 9.03594C6.37144 9.15879 7.57671 11.0182 9.42612 11.8184C10.5949 12.323 11.0531 12.3662 11.6375 12.2799C11.9927 12.2268 12.7265 11.835 12.8792 11.4033C13.032 10.9717 13.032 10.6031 12.9855 10.5268C12.9423 10.4438 12.8195 10.3973 12.6369 10.3076Z" fill="white"/>
</g>
</svg>
